<svg width="58" height="58" viewBox="0 0 58 58" fill="none" xmlns="http://www.w3.org/2000/svg">
<rect width="58" height="58" rx="16" fill="#CCE5E2"/>
<path fill-rule="evenodd" clip-rule="evenodd" d="M39.023 14.5625C40.6043 14.5627 41.8858 15.8493 41.886 17.4368V41.8747H43.3185L43.4643 41.882C44.1863 41.9555 44.7498 42.5676 44.75 43.3118C44.75 44.0562 44.1864 44.6681 43.4643 44.7416L43.3185 44.7489H39.044C39.037 44.749 39.03 44.75 39.023 44.75H24.704C24.697 44.75 24.69 44.749 24.683 44.7489H21.862C21.855 44.749 21.848 44.75 21.841 44.75H18.977C18.9701 44.75 18.9629 44.749 18.956 44.7489H14.6815C13.8907 44.7489 13.25 44.1057 13.25 43.3118C13.2502 42.5181 13.8908 41.8747 14.6815 41.8747H16.114V33.2496C16.1142 31.6621 17.3957 30.3755 18.977 30.3754H21.841V17.4368C21.8412 15.8493 23.1227 14.5627 24.704 14.5625H39.023ZM18.977 36.125V38.9993H22.5562V36.125H18.977ZM33.295 35.4059V38.2812H36.159V35.4059H33.295ZM33.295 30.3743V33.2496H36.159V30.3743H33.295ZM27.568 25.3438V28.218H30.432V25.3438H27.568ZM33.295 25.3438V28.218H36.159V25.3438H33.295ZM27.568 20.3121V23.1875H30.432V20.3121H27.568ZM33.295 20.3121V23.1875H36.159V20.3121H33.295Z" fill="#007B6F"/>
</svg>
