<svg width="58" height="58" viewBox="0 0 58 58" fill="none" xmlns="http://www.w3.org/2000/svg">
<rect width="58" height="58" rx="16" fill="#CCE5E2"/>
<path d="M34.733 16.3999C34.733 17.2353 34.3996 18.0365 33.806 18.6272C33.2125 19.2179 32.4075 19.5498 31.5681 19.5498C30.7288 19.5498 29.9238 19.2179 29.3302 18.6272C28.7367 18.0365 28.4033 17.2353 28.4033 16.3999C28.4033 15.5645 28.7367 14.7633 29.3302 14.1726C29.9238 13.5819 30.7288 13.25 31.5681 13.25C32.4075 13.25 33.2125 13.5819 33.806 14.1726C34.3996 14.7633 34.733 15.5645 34.733 16.3999ZM30.3362 32.4619L34.445 36.4969C34.6026 36.6516 34.7257 36.8375 34.8066 37.0426L36.9975 42.5982C37.1509 42.9871 37.1428 43.4207 36.9749 43.8036C36.8071 44.1866 36.4933 44.4875 36.1026 44.6401C35.7119 44.7928 35.2762 44.7847 34.8915 44.6177C34.5067 44.4507 34.2044 44.1384 34.051 43.7495L31.9827 38.5042L24.9187 31.5665C24.7481 31.399 24.6178 31.1951 24.5379 30.9701C24.458 30.7452 24.4305 30.5051 24.4575 30.268L25.0232 25.2912C23.6591 26.6409 22.6068 28.5379 21.8006 31.0523C21.7403 31.2528 21.6405 31.4392 21.507 31.6009C21.3735 31.7625 21.209 31.896 21.023 31.9936C20.8371 32.0913 20.6335 32.1511 20.4241 32.1695C20.2147 32.188 20.0037 32.1647 19.8034 32.1011C19.6032 32.0375 19.4177 31.9348 19.2577 31.799C19.0978 31.6632 18.9666 31.4971 18.8719 31.3103C18.7772 31.1235 18.7208 30.9199 18.706 30.7111C18.6913 30.5024 18.7185 30.2929 18.786 30.0948C20.2656 25.4802 22.7223 22.0264 26.8446 20.4427L26.8628 20.4357C27.9127 20.0474 29.0046 20.0789 29.9778 20.579C30.9122 21.0601 31.5776 21.8909 32.0136 22.8217L32.5263 23.9242C32.9124 24.7573 33.2368 25.4597 33.5493 26.0755C33.9869 26.9417 34.339 27.5166 34.6871 27.9198C35.0099 28.293 35.3304 28.523 35.7394 28.682C36.1793 28.8529 36.7957 28.971 37.7475 28.9994C37.9566 29.0036 38.1628 29.0489 38.3542 29.1329C38.5456 29.2169 38.7183 29.3378 38.8625 29.4886C39.0066 29.6394 39.1193 29.8171 39.1939 30.0116C39.2686 30.206 39.3039 30.4132 39.2976 30.6213C39.2913 30.8293 39.2437 31.0341 39.1574 31.2237C39.0711 31.4133 38.9479 31.584 38.795 31.726C38.642 31.8679 38.4623 31.9783 38.2662 32.0506C38.0701 32.123 37.8616 32.156 37.6526 32.1477C36.5093 32.1138 35.4942 31.9682 34.5882 31.6162C33.6522 31.2523 32.914 30.6988 32.2858 29.9703C31.8902 29.512 31.542 28.9884 31.2176 28.419L30.3362 32.4619Z" fill="#007B6F"/>
<path d="M24.4575 33.8975L27.0804 36.4016L25.873 40.4547C25.7796 40.7683 25.5904 41.0452 25.3318 41.2469L21.2697 44.4149C21.106 44.5425 20.9187 44.6367 20.7185 44.6922C20.5182 44.7477 20.309 44.7635 20.1026 44.7385C19.8963 44.7135 19.6969 44.6483 19.5159 44.5467C19.3348 44.445 19.1757 44.3089 19.0475 44.146C18.9194 43.9831 18.8247 43.7967 18.7689 43.5974C18.7131 43.3981 18.6973 43.1898 18.7224 42.9845C18.7475 42.7791 18.813 42.5807 18.9151 42.4005C19.0173 42.2203 19.1541 42.0619 19.3177 41.9344L22.9826 39.0774L24.0864 35.3685L24.4575 33.8975Z" fill="#007B6F"/>
</svg>
