<svg viewBox="0 0 7.2696 12.375" fill="none" xmlns="http://www.w3.org/2000/svg" x="0" y="0"><path id="Vector_3" d="M0,6.1875c0,-0.148 0.0277,-0.292 0.0832,-0.431c0.0555,-0.139 0.1295,-0.254 0.222,-0.346l5.1054,-5.105c0.2035,-0.204 0.4624,-0.306 0.7769,-0.306c0.3144,0 0.5734,0.102 0.7769,0.306c0.2035,0.203 0.3052,0.462 0.3052,0.777c0,0.314 -0.1017,0.573 -0.3052,0.777l-4.3285,4.328l4.3285,4.328c0.2035,0.204 0.3052,0.463 0.3052,0.777c0,0.315 -0.1017,0.574 -0.3052,0.777c-0.2035,0.204 -0.4625,0.306 -0.7769,0.306c-0.3145,0 -0.5734,-0.102 -0.7769,-0.306l-5.1054,-5.105c-0.111,-0.111 -0.1898,-0.231 -0.2364,-0.361c-0.0466,-0.129 -0.0696,-0.268 -0.0688,-0.416z" fill="currentColor"/></svg>