<svg viewBox="0 0 6.4619 11" fill="none" xmlns="http://www.w3.org/2000/svg" x="0" y="0"><path id="Vector_2" d="M6.462,5.5c0,0.1315 -0.025,0.2591 -0.074,0.3828c-0.049,0.1236 -0.115,0.2262 -0.197,0.3078l-4.539,4.5381c-0.18,0.1809 -0.411,0.2713 -0.69,0.2713c-0.28,0 -0.51,-0.0904 -0.691,-0.2713c-0.181,-0.1809 -0.271,-0.4111 -0.271,-0.6906c0,-0.2795 0.09,-0.5097 0.271,-0.6906l3.848,-3.8475l-3.848,-3.8475c-0.181,-0.1809 -0.271,-0.4111 -0.271,-0.6906c0,-0.2795 0.09,-0.5097 0.271,-0.6906c0.181,-0.1809 0.411,-0.2713 0.691,-0.2713c0.279,0 0.51,0.0904 0.69,0.2713l4.539,4.5381c0.098,0.0987 0.168,0.2055 0.21,0.3206c0.041,0.1151 0.062,0.2385 0.061,0.37z" fill="currentColor"/></svg>