<svg viewBox="0 0 13.5 13.5" fill="none" xmlns="http://www.w3.org/2000/svg" x="0" y="0"><path id="Vector_5" d="M7.67,2.727l-7.5,7.51c-0.05,0.051 -0.1,0.113 -0.13,0.182c-0.03,0.069 -0.04,0.144 -0.04,0.219v2.29c0,0.32 0.25,0.572 0.57,0.572h2.29c0.15,0 0.3,-0.057 0.4,-0.172l7.51,-7.498zM13.16,1.812l-1.47,-1.477c-0.11,-0.106 -0.23,-0.191 -0.37,-0.248c-0.14,-0.057 -0.29,-0.087 -0.44,-0.087c-0.15,0 -0.3,0.03 -0.44,0.087c-0.14,0.057 -0.26,0.142 -0.37,0.248l-1.37,1.374l3.1,3.102l1.38,-1.374c0.43,-0.446 0.43,-1.179 -0.02,-1.625z" fill="currentColor"/></svg>