<svg viewBox="0 0 18 18" fill="none" xmlns="http://www.w3.org/2000/svg" x="0" y="0"><path id="Vector" d="M8.0719,2.2431v3.5815c0,0.2965 -0.0586,0.5902 -0.1725,0.864c-0.1138,0.2739 -0.2806,0.5226 -0.4908,0.7319c-0.2103,0.2092 -0.4598,0.3749 -0.7342,0.4876c-0.2745,0.1126 -0.5685,0.17 -0.8652,0.1688h-3.5649c-0.2959,0.0018 -0.5892,-0.0562 -0.8621,-0.1704c-0.273,-0.1142 -0.52,-0.2823 -0.7264,-0.4942c-0.2096,-0.2077 -0.3755,-0.4551 -0.4881,-0.7278c-0.1126,-0.2726 -0.1696,-0.565 -0.1677,-0.8599v-3.5723c0,-0.5958 0.2362,-1.1672 0.6568,-1.5894c0.4206,-0.4221 0.9914,-0.6605 1.5875,-0.6629h3.5741c0.2956,0.0003 0.5882,0.0592 0.8609,0.1733c0.2726,0.114 0.52,0.281 0.7276,0.4913c0.2101,0.2058 0.3771,0.4514 0.4913,0.7224c0.1141,0.271 0.1732,0.562 0.1737,0.8561zM18,2.2523v3.5723c-0.0048,0.5942 -0.2425,1.163 -0.6621,1.584c-0.4195,0.4211 -0.9876,0.661 -1.5821,0.6683h-3.5834c-0.5973,-0.0037 -1.17,-0.2386 -1.5977,-0.6554c-0.209,-0.21 -0.3745,-0.4592 -0.487,-0.7332c-0.1125,-0.274 -0.1699,-0.5675 -0.1687,-0.8637v-3.5723c-0.0008,-0.2956 0.0577,-0.5884 0.1719,-0.861c0.1142,-0.2727 0.2818,-0.5198 0.493,-0.7267c0.2077,-0.2103 0.455,-0.3773 0.7276,-0.4913c0.2727,-0.1141 0.5653,-0.173 0.8609,-0.1733h3.5741c0.5962,0.0048 1.1666,0.2437 1.5881,0.665c0.4216,0.4214 0.6606,0.9914 0.6654,1.5873zM18,12.1753v3.5723c-0.0048,0.5943 -0.2425,1.163 -0.6621,1.5841c-0.4195,0.421 -0.9876,0.661 -1.5821,0.6682h-3.5834c-0.6011,0.0061 -1.181,-0.2224 -1.6162,-0.6369c-0.2098,-0.2094 -0.3758,-0.4585 -0.4884,-0.7326c-0.1126,-0.2742 -0.1695,-0.568 -0.1673,-0.8644v-3.5722c-0.0008,-0.2956 0.0577,-0.5884 0.1719,-0.8611c0.1142,-0.2726 0.2818,-0.5197 0.493,-0.7266c0.2077,-0.2103 0.455,-0.3773 0.7277,-0.4914c0.2726,-0.1141 0.5652,-0.1729 0.8608,-0.1732h3.5742c0.5961,0.0048 1.1665,0.2436 1.5881,0.665c0.4215,0.4213 0.6605,0.9914 0.6653,1.5873zM8.0719,12.1845v3.5723c-0.0073,0.5959 -0.2486,1.165 -0.6719,1.5846c-0.4233,0.4196 -0.9947,0.6561 -1.5908,0.6585h-3.5649c-0.2951,0.0012 -0.5875,-0.056 -0.8603,-0.1683c-0.2728,-0.1123 -0.5207,-0.2774 -0.7294,-0.486c-0.2086,-0.2085 -0.3739,-0.4563 -0.4862,-0.729c-0.1124,-0.2726 -0.1696,-0.5649 -0.1684,-0.8598v-3.5723c0.0024,-0.5958 0.2391,-1.1669 0.6589,-1.59c0.4198,-0.423 0.9892,-0.6642 1.5854,-0.6715h3.5741c0.5986,0.0061 1.1715,0.2444 1.5977,0.6646c0.4213,0.4247 0.657,0.9989 0.6558,1.5969z" fill="currentColor"/></svg>