<svg width="58" height="58" viewBox="0 0 58 58" fill="none" xmlns="http://www.w3.org/2000/svg">
<rect width="58" height="58" rx="16" fill="#CCE5E2"/>
<path d="M20.9792 13.25C19.2774 13.25 17.6453 13.9137 16.4419 15.0952C15.2385 16.2767 14.5625 17.8791 14.5625 19.55V38.45C14.5625 40.1209 15.2385 41.7233 16.4419 42.9048C17.6453 44.0863 19.2774 44.75 20.9792 44.75H43.4375V13.25H20.9792ZM37.0208 25.4563L33.0104 22.2086L29 25.4563V16.4H37.0208V25.4563ZM17.7708 38.45C17.7708 37.6146 18.1089 36.8134 18.7105 36.2226C19.3122 35.6319 20.1283 35.3 20.9792 35.3H40.2292V41.6H20.9792C20.1283 41.6 19.3122 41.2681 18.7105 40.6774C18.1089 40.0866 17.7708 39.2854 17.7708 38.45Z" fill="#007B6F"/>
</svg>
