<svg width="58" height="58" viewBox="0 0 58 58" fill="none" xmlns="http://www.w3.org/2000/svg">
<rect width="58" height="58" rx="16" fill="#CCE5E2"/>
<path fill-rule="evenodd" clip-rule="evenodd" d="M41.1708 20.0095C43.1474 20.0098 44.75 21.5519 44.75 23.4545V31.7235C44.75 33.6261 43.1474 35.1682 41.1708 35.1685H25.4205C23.4435 35.1685 21.8413 33.6263 21.8413 31.7235V23.4545C21.8413 21.5517 23.4435 20.0095 25.4205 20.0095H41.1708ZM28.9997 24.144C28.2089 24.144 27.5682 24.7606 27.5682 25.5218V29.6562C27.5682 30.4174 28.2089 31.0341 28.9997 31.0341C29.7904 31.0341 30.4311 30.4174 30.4311 29.6562V25.5218C30.4311 24.7606 29.7904 24.144 28.9997 24.144ZM37.5906 24.144C36.7998 24.144 36.1591 24.7606 36.1591 25.5218V29.6562C36.1591 30.4174 36.7998 31.0341 37.5906 31.0341C38.3813 31.0341 39.022 30.4174 39.022 29.6562V25.5218C39.022 24.7606 38.3813 24.144 37.5906 24.144Z" fill="#007B6F"/>
<path d="M17.5455 36.5474V20.6979H14.6815C13.8907 20.6979 13.25 20.0812 13.25 19.3201C13.25 18.5589 13.8907 17.9422 14.6815 17.9422H17.5455C18.3048 17.9423 19.0335 18.2319 19.5705 18.7487C20.1074 19.2656 20.4083 19.967 20.4084 20.6979V36.5474H43.3182L43.464 36.5544C44.1861 36.6249 44.7496 37.2116 44.7497 37.9252C44.7497 38.6388 44.1861 39.2255 43.464 39.296L43.3182 39.303H20.4084C19.649 39.3029 18.9203 39.0133 18.3834 38.4965C17.8464 37.9797 17.5455 37.2783 17.5455 36.5474ZM36.1587 21.3873V18.6306H30.4318V21.3873C30.4318 22.1484 29.7901 22.7651 28.9993 22.7651C28.2087 22.7649 27.5678 22.1483 27.5678 21.3873V17.2528L27.5752 17.1115C27.6487 16.4169 28.2583 15.8752 28.9993 15.875H37.5902L37.737 15.8821C38.459 15.9527 39.0227 16.5393 39.0227 17.2528V21.3873C39.0227 22.1484 38.381 22.7651 37.5902 22.7651C36.7996 22.7649 36.1587 22.1483 36.1587 21.3873Z" fill="#007B6F"/>
<path d="M25.4201 42.0597C24.8505 42.0597 24.3042 41.8419 23.9014 41.4542C23.4987 41.0665 23.2724 40.5407 23.2724 39.9924V37.9252H27.5678V39.9924C27.5678 40.5407 27.3416 41.0665 26.9388 41.4542C26.536 41.8419 25.9897 42.0597 25.4201 42.0597ZM38.3065 42.0597C37.7369 42.0597 37.1906 41.8419 36.7878 41.4542C36.385 41.0665 36.1587 40.5407 36.1587 39.9924V37.9252H40.4542V39.9924C40.4542 40.5407 40.2279 41.0665 39.8251 41.4542C39.4224 41.8419 38.8761 42.0597 38.3065 42.0597Z" fill="#007B6F"/>
<path d="M26.1364 39.303H24.7038V39.9924L24.7185 40.1277C24.7461 40.26 24.813 40.3831 24.9136 40.48C25.0478 40.6092 25.2302 40.6819 25.4201 40.6819C25.61 40.6819 25.7924 40.6092 25.9266 40.48C26.0609 40.3507 26.1364 40.1752 26.1364 39.9924V39.303ZM39.0227 39.303H37.5902V39.9924C37.5902 40.1752 37.6657 40.3507 37.7999 40.48C37.9342 40.6092 38.1166 40.6819 38.3065 40.6819C38.4963 40.6819 38.6787 40.6092 38.813 40.48C38.9472 40.3507 39.0227 40.1752 39.0227 39.9924V39.303ZM28.9951 40.163C28.9513 41.0147 28.5811 41.8233 27.9517 42.4291C27.2804 43.0753 26.3695 43.4375 25.4201 43.4375C24.4707 43.4375 23.5598 43.0753 22.8886 42.4291C22.2592 41.8233 21.8889 41.0147 21.8451 40.163L21.8409 39.9924V37.9252L21.8482 37.7839C21.9218 37.0891 22.5312 36.5474 23.2724 36.5474H27.5678L27.7146 36.5544C28.4364 36.6252 28.9993 37.2118 28.9993 37.9252V39.9924L28.9951 40.163ZM41.8857 39.9924C41.8857 40.9062 41.5093 41.783 40.838 42.4291C40.1667 43.0752 39.2558 43.4375 38.3065 43.4375C37.3571 43.4375 36.4462 43.0752 35.7749 42.4291C35.1036 41.783 34.7273 40.9062 34.7273 39.9924V37.9252L34.7346 37.7839C34.8081 37.0891 35.4175 36.5474 36.1587 36.5474H40.4542L40.601 36.5544C41.3228 36.6252 41.8857 37.2118 41.8857 37.9252V39.9924Z" fill="#007B6F"/>
</svg>
