<svg width="58" height="58" viewBox="0 0 58 58" fill="none" xmlns="http://www.w3.org/2000/svg">
<rect width="58" height="58" rx="16" fill="#CCE5E2"/>
<path fill-rule="evenodd" clip-rule="evenodd" d="M37.75 13.25C38.6783 13.25 39.5685 13.6187 40.2249 14.2751C40.8813 14.9315 41.25 15.8217 41.25 16.75V18.5H43C43.4641 18.5 43.9092 18.6844 44.2374 19.0126C44.5656 19.3408 44.75 19.7859 44.75 20.25C44.75 20.7141 44.5656 21.1592 44.2374 21.4874C43.9092 21.8156 43.4641 22 43 22V41.25C43.4641 41.25 43.9092 41.4344 44.2374 41.7626C44.5656 42.0908 44.75 42.5359 44.75 43C44.75 43.4641 44.5656 43.9092 44.2374 44.2374C43.9092 44.5656 43.4641 44.75 43 44.75H31.625V36.875C31.625 36.1788 31.3484 35.5111 30.8562 35.0188C30.3639 34.5266 29.6962 34.25 29 34.25C28.3038 34.25 27.6361 34.5266 27.1438 35.0188C26.6516 35.5111 26.375 36.1788 26.375 36.875V44.75H15C14.5359 44.75 14.0908 44.5656 13.7626 44.2374C13.4344 43.9092 13.25 43.4641 13.25 43C13.25 42.5359 13.4344 42.0908 13.7626 41.7626C14.0908 41.4344 14.5359 41.25 15 41.25V22C14.5359 22 14.0908 21.8156 13.7626 21.4874C13.4344 21.1592 13.25 20.7141 13.25 20.25C13.25 19.7859 13.4344 19.3408 13.7626 19.0126C14.0908 18.6844 14.5359 18.5 15 18.5H16.75V16.75C16.75 15.8217 17.1187 14.9315 17.7751 14.2751C18.4315 13.6187 19.3217 13.25 20.25 13.25H37.75ZM22 30.75C21.5359 30.75 21.0908 30.9344 20.7626 31.2626C20.4344 31.5908 20.25 32.0359 20.25 32.5V34.25C20.25 34.7141 20.4344 35.1592 20.7626 35.4874C21.0908 35.8156 21.5359 36 22 36C22.4641 36 22.9092 35.8156 23.2374 35.4874C23.5656 35.1592 23.75 34.7141 23.75 34.25V32.5C23.75 32.0359 23.5656 31.5908 23.2374 31.2626C22.9092 30.9344 22.4641 30.75 22 30.75ZM36 30.75C35.5714 30.7501 35.1577 30.9074 34.8373 31.1923C34.517 31.4771 34.3124 31.8696 34.2622 32.2953L34.25 32.5V34.25C34.2505 34.696 34.4213 35.1251 34.7275 35.4494C35.0337 35.7737 35.4522 35.9689 35.8974 35.9951C36.3427 36.0212 36.7812 35.8763 37.1232 35.59C37.4652 35.3038 37.6851 34.8977 37.7378 34.4547L37.75 34.25V32.5C37.75 32.0359 37.5656 31.5908 37.2374 31.2626C36.9092 30.9344 36.4641 30.75 36 30.75ZM22 23.75C21.5714 23.7501 21.1577 23.9074 20.8373 24.1923C20.517 24.4771 20.3124 24.8696 20.2622 25.2953L20.25 25.5V27.25C20.2505 27.696 20.4213 28.1251 20.7275 28.4494C21.0337 28.7737 21.4522 28.9689 21.8974 28.9951C22.3427 29.0212 22.7812 28.8763 23.1232 28.59C23.4652 28.3038 23.6851 27.8977 23.7378 27.4547L23.75 27.25V25.5C23.75 25.0359 23.5656 24.5908 23.2374 24.2626C22.9092 23.9344 22.4641 23.75 22 23.75ZM29 23.75C28.5714 23.7501 28.1577 23.9074 27.8373 24.1923C27.517 24.4771 27.3124 24.8696 27.2622 25.2953L27.25 25.5V27.25C27.2505 27.696 27.4213 28.1251 27.7275 28.4494C28.0337 28.7737 28.4522 28.9689 28.8974 28.9951C29.3427 29.0212 29.7812 28.8763 30.1232 28.59C30.4652 28.3038 30.6851 27.8977 30.7378 27.4547L30.75 27.25V25.5C30.75 25.0359 30.5656 24.5908 30.2374 24.2626C29.9092 23.9344 29.4641 23.75 29 23.75ZM36 23.75C35.5359 23.75 35.0908 23.9344 34.7626 24.2626C34.4344 24.5908 34.25 25.0359 34.25 25.5V27.25C34.25 27.7141 34.4344 28.1592 34.7626 28.4874C35.0908 28.8156 35.5359 29 36 29C36.4641 29 36.9092 28.8156 37.2374 28.4874C37.5656 28.1592 37.75 27.7141 37.75 27.25V25.5C37.75 25.0359 37.5656 24.5908 37.2374 24.2626C36.9092 23.9344 36.4641 23.75 36 23.75ZM37.75 16.75H20.25V18.5H37.75V16.75Z" fill="#007B6F"/>
</svg>
