<svg width="104" height="104" viewBox="0 0 104 104" fill="none" xmlns="http://www.w3.org/2000/svg">
<rect width="104" height="104" rx="32" fill="#CCE5E2"/>
<path d="M41.215 78.9999C39.7286 78.9999 38.4566 78.4716 37.3991 77.415C36.3415 76.3584 35.8118 75.0867 35.81 73.5999C35.8082 72.1131 36.3379 70.8423 37.3991 69.7875C38.4602 68.7327 39.7322 68.2035 41.215 68.1999C42.6978 68.1963 43.9706 68.7255 45.0336 69.7875C46.0966 70.8495 46.6254 72.1203 46.62 73.5999C46.6146 75.0795 46.0858 76.3512 45.0336 77.415C43.9814 78.4788 42.7086 79.0071 41.215 78.9999ZM68.24 78.9999C66.7536 78.9999 65.4816 78.4716 64.424 77.415C63.3665 76.3584 62.8368 75.0867 62.835 73.5999C62.8332 72.1131 63.3628 70.8423 64.424 69.7875C65.4852 68.7327 66.7572 68.2035 68.24 68.1999C69.7227 68.1963 70.9956 68.7255 72.0586 69.7875C73.1216 70.8495 73.6503 72.1203 73.6449 73.5999C73.6395 75.0795 73.1108 76.3512 72.0586 77.415C71.0064 78.4788 69.7335 79.0071 68.24 78.9999ZM36.3505 30.4H76.2123C77.2483 30.4 78.0365 30.8617 78.577 31.7851C79.1175 32.7085 79.14 33.6418 78.6446 34.585L69.0507 51.865C68.5552 52.765 67.8913 53.4625 67.059 53.9575C66.2266 54.4525 65.314 54.7 64.3213 54.7H44.1877L41.215 60.1H70.9424C71.7082 60.1 72.3504 60.3592 72.8693 60.8776C73.3882 61.396 73.6467 62.0368 73.6449 62.8C73.6431 63.5631 73.3837 64.2048 72.8666 64.725C72.3495 65.2452 71.7082 65.5035 70.9424 65.4999H41.215C39.1881 65.4999 37.6567 64.6116 36.6207 62.8351C35.5848 61.0585 35.5397 59.2918 36.4856 57.535L40.134 50.92L30.405 30.4H27.7025C26.9368 30.4 26.2954 30.1408 25.7783 29.6224C25.2613 29.104 25.0018 28.4632 25 27.7C24.9982 26.9368 25.2576 26.296 25.7783 25.7776C26.299 25.2592 26.9404 25 27.7025 25H32.0941C32.5895 25 33.0625 25.135 33.5129 25.405C33.9633 25.675 34.3011 26.0575 34.5263 26.5525L36.3505 30.4Z" fill="#007B6F"/>
</svg>
