<svg width="104" height="104" viewBox="0 0 104 104" fill="none" xmlns="http://www.w3.org/2000/svg">
<rect width="104" height="104" rx="32" fill="#CCE5E2"/>
<path d="M52.0014 52C55.4791 52 58.8144 50.5777 61.2736 48.0459C63.7327 45.5142 65.1142 42.0804 65.1142 38.5C65.1142 34.9196 63.7327 31.4858 61.2736 28.9541C58.8144 26.4223 55.4791 25 52.0014 25C48.5237 25 45.1884 26.4223 42.7293 28.9541C40.2701 31.4858 38.8886 34.9196 38.8886 38.5C38.8886 42.0804 40.2701 45.5142 42.7293 48.0459C45.1884 50.5777 48.5237 52 52.0014 52ZM72.6978 79C75.399 79 77.4752 76.4755 76.5092 73.8745C74.6143 68.7628 71.2562 64.3642 66.8794 61.2608C62.5026 58.1575 57.3136 56.4959 51.9992 56.4959C46.6849 56.4959 41.4958 58.1575 37.119 61.2608C32.7422 64.3642 29.3841 68.7628 27.4892 73.8745C26.5276 76.4755 28.5994 79 31.3007 79H72.6978Z" fill="#007B6F"/>
</svg>
