<svg width="104" height="104" viewBox="0 0 104 104" fill="none" xmlns="http://www.w3.org/2000/svg">
<rect width="104" height="104" rx="32" fill="#CCE5E2"/>
<path d="M51.865 68.2C52.81 68.2 53.6092 67.8733 54.2626 67.2199C54.916 66.5665 55.2418 65.7682 55.24 64.825C55.2382 63.8818 54.9124 63.0826 54.2626 62.4274C53.6128 61.7722 52.8136 61.4464 51.865 61.45C50.9164 61.4536 50.1181 61.7803 49.4701 62.4301C48.8221 63.0799 48.4954 63.8782 48.49 64.825C48.4846 65.7718 48.8113 66.571 49.4701 67.2226C50.1289 67.8742 50.9272 68.2 51.865 68.2ZM52 79C48.265 79 44.755 78.2908 41.47 76.8724C38.185 75.454 35.3275 73.5307 32.8975 71.1025C30.4675 68.6743 28.5442 65.8168 27.1276 62.53C25.711 59.2432 25.0018 55.7332 25 52C24.9982 48.2668 25.7074 44.7568 27.1276 41.47C28.5478 38.1832 30.4711 35.3257 32.8975 32.8975C35.3239 30.4693 38.1814 28.546 41.47 27.1276C44.7586 25.7092 48.2686 25 52 25C55.7314 25 59.2414 25.7092 62.53 27.1276C65.8186 28.546 68.6761 30.4693 71.1025 32.8975C73.5289 35.3257 75.4531 38.1832 76.8751 41.47C78.2971 44.7568 79.0054 48.2668 79 52C78.9946 55.7332 78.2854 59.2432 76.8724 62.53C75.4594 65.8168 73.5361 68.6743 71.1025 71.1025C68.6689 73.5307 65.8114 75.4549 62.53 76.8751C59.2486 78.2953 55.7386 79.0036 52 79ZM52.27 40.39C53.395 40.39 54.3742 40.75 55.2076 41.47C56.041 42.19 56.4568 43.09 56.455 44.17C56.455 45.16 56.1517 46.0375 55.5451 46.8025C54.9385 47.5675 54.2518 48.2875 53.485 48.9625C52.45 49.8625 51.5392 50.8525 50.7526 51.9325C49.966 53.0125 49.5718 54.2275 49.57 55.5775C49.57 56.2075 49.8067 56.7367 50.2801 57.1651C50.7535 57.5935 51.3043 57.8068 51.9325 57.805C52.6075 57.805 53.1817 57.58 53.6551 57.13C54.1285 56.68 54.4318 56.1175 54.565 55.4425C54.745 54.4975 55.15 53.6542 55.78 52.9126C56.41 52.171 57.085 51.4618 57.805 50.785C58.84 49.795 59.7292 48.715 60.4726 47.545C61.216 46.375 61.5868 45.07 61.585 43.63C61.585 41.335 60.6517 39.4567 58.7851 37.9951C56.9185 36.5335 54.7468 35.8018 52.27 35.8C50.56 35.8 48.9292 36.16 47.3776 36.88C45.826 37.6 44.6443 38.7025 43.8325 40.1875C43.5175 40.7275 43.4167 41.3017 43.5301 41.9101C43.6435 42.5185 43.9468 42.9793 44.44 43.2925C45.07 43.6525 45.7225 43.765 46.3975 43.63C47.0725 43.495 47.635 43.1125 48.085 42.4825C48.58 41.8075 49.1992 41.29 49.9426 40.93C50.686 40.57 51.4618 40.39 52.27 40.39Z" fill="#007B6F"/>
</svg>
