<svg width="104" height="104" viewBox="0 0 104 104" fill="none" xmlns="http://www.w3.org/2000/svg">
<rect width="104" height="104" rx="32" fill="#CCE5E2"/>
<path d="M25 39.4348V68.9957C25 70.7132 25.9469 72.3354 27.5312 72.9365C35.6875 76.0376 43.8438 73.9193 52 71.801C59.4813 69.864 66.9625 67.9174 74.4344 69.9976C76.5906 70.5987 79 69.0911 79 66.8106V37.2402C79 35.5226 78.0531 33.9005 76.4688 33.2994C68.3125 30.2173 60.1562 32.3356 52 34.4539C44.5187 36.3909 37.0375 38.328 29.5656 36.2478C27.4 35.6467 25 37.1543 25 39.4348ZM52 62.2877C47.8562 62.2877 44.5 58.1847 44.5 53.1275C44.5 48.0703 47.8562 43.9672 52 43.9672C56.1438 43.9672 59.5 48.0703 59.5 53.1275C59.5 58.1847 56.1438 62.2877 52 62.2877ZM31 62.2877C34.3094 62.2877 37 65.0262 37 68.3945H31V62.2877ZM37 42.4405C37 45.8088 34.3094 48.5474 31 48.5474V42.4405H37ZM73 57.7076V63.8144H67C67 60.4461 69.6906 57.7076 73 57.7076ZM67 37.8604H73V43.9672C69.6906 43.9672 67 41.2287 67 37.8604Z" fill="#007B6F"/>
</svg>
