<svg width="58" height="58" viewBox="0 0 58 58" fill="none" xmlns="http://www.w3.org/2000/svg">
<rect width="58" height="58" rx="16" fill="#CCE5E2"/>
<path d="M45.0234 39.2268L38.1337 27.1414C37.956 26.8266 37.7018 26.5658 37.3967 26.3852C37.0915 26.2046 36.746 26.1105 36.3949 26.1124C36.0438 26.1105 35.6985 26.2046 35.3936 26.3852C35.0886 26.5658 34.8347 26.8266 34.6573 27.1414L32.6823 30.6051C32.6363 30.6859 32.612 30.7782 32.612 30.8721C32.612 30.9661 32.6363 31.0583 32.6823 31.1392L36.0665 37.1071C36.1951 37.3288 36.2417 37.5914 36.1978 37.8461C36.1539 38.1008 36.0224 38.3303 35.8279 38.4918C35.7145 38.5833 35.5836 38.6486 35.444 38.6834C35.3044 38.7183 35.1593 38.7217 35.0183 38.6937C34.8773 38.6656 34.7437 38.6066 34.6263 38.5207C34.509 38.4347 34.4106 38.3237 34.3378 38.1952L25.6916 22.9467C25.5132 22.6315 25.2586 22.3702 24.9532 22.1887C24.6478 22.0072 24.3021 21.9117 23.9502 21.9117C23.5984 21.9117 23.2526 22.0072 22.9472 22.1887C22.6418 22.3702 22.3873 22.6315 22.2088 22.9467L12.978 39.2294C12.8666 39.424 12.8187 39.6508 12.8415 39.8759C12.8642 40.1011 12.9564 40.3126 13.1042 40.4789C13.2038 40.5871 13.3239 40.6726 13.4569 40.73C13.59 40.7874 13.7331 40.8154 13.8771 40.8123H44.1256C44.269 40.8141 44.4112 40.7854 44.5435 40.7278C44.6757 40.6703 44.7952 40.5851 44.8946 40.4776C45.0431 40.3115 45.1359 40.0999 45.1592 39.8744C45.1824 39.649 45.1347 39.4218 45.0234 39.2268ZM20.9739 29.2624L23.9502 24.0124L26.9266 29.2624H20.9739ZM30.5166 20.3375C30.5166 19.7145 30.6944 19.1055 31.0274 18.5874C31.3604 18.0694 31.8337 17.6657 32.3875 17.4273C32.9413 17.1889 33.5507 17.1265 34.1386 17.248C34.7264 17.3696 35.2665 17.6696 35.6903 18.1101C36.1141 18.5506 36.4028 19.1119 36.5197 19.7229C36.6367 20.334 36.5766 20.9673 36.3473 21.5429C36.1179 22.1185 35.7294 22.6104 35.231 22.9566C34.7327 23.3027 34.1467 23.4874 33.5473 23.4874C32.7435 23.4874 31.9727 23.1556 31.4043 22.5648C30.8359 21.9741 30.5166 21.1729 30.5166 20.3375Z" fill="#007B6F"/>
</svg>
