<svg width="58" height="58" viewBox="0 0 58 58" fill="none" xmlns="http://www.w3.org/2000/svg">
<rect width="58" height="58" rx="16" fill="#CCE5E2"/>
<path fill-rule="evenodd" clip-rule="evenodd" d="M27.036 13.4128C26.6048 13.2682 26.1476 13.2191 25.6958 13.2688C25.2439 13.3185 24.8081 13.4659 24.4183 13.7008L17.9293 17.6126C17.4629 17.8938 17.0769 18.2916 16.8089 18.7672C16.5409 19.2428 16.4 19.78 16.4 20.3265V41.5851H14.825C14.4073 41.5851 14.0067 41.7518 13.7113 42.0486C13.4159 42.3454 13.25 42.7479 13.25 43.1676C13.25 43.5872 13.4159 43.9897 13.7113 44.2865C14.0067 44.5833 14.4073 44.75 14.825 44.75H43.175C43.5927 44.75 43.9933 44.5833 44.2887 44.2865C44.5841 43.9897 44.75 43.5872 44.75 43.1676C44.75 42.7479 44.5841 42.3454 44.2887 42.0486C43.9933 41.7518 43.5927 41.5851 43.175 41.5851H41.6V20.5702C41.5996 19.9064 41.3915 19.2596 41.0051 18.7212C40.6188 18.1827 40.0737 17.78 39.447 17.5699L27.036 13.4128ZM24.275 17.4797L19.55 20.3281V41.5851H24.275V17.4781V17.4797Z" fill="#007B6F"/>
</svg>
