<svg viewBox="0 0 32 32" fill="none" xmlns="http://www.w3.org/2000/svg" x="0" y="0"><g id="Vector_4">
<path fill-rule="evenodd" clip-rule="evenodd" d="M13.1933,0.119c0.8412,-0.014 1.5392,0.663 1.5529,1.502l0.14,8.387c0.0126,0.84 -0.6622,1.54 -1.5034,1.553c-0.3905,0.015 -0.7927,-0.152 -1.0748,-0.42l-6.1324,-5.931c-0.5516,-0.534 -0.5674,-1.422 -0.0326,-1.974l0.1832,-0.189c0.5337,-0.55 1.4275,-0.561 1.9739,-0.033l3.4688,3.355l-0.0789,-4.697c-0.0137,-0.838 0.6622,-1.538 1.5033,-1.553zM4.946,6.72l6.0292,5.832c0.9738,0.942 0.3316,2.594 -1.0517,2.623l-8.5,0.142c-0.7675,0.013 -1.4065,-0.606 -1.4191,-1.372l-0.0042,-0.264c-0.0106,-0.712 0.5137,-1.394 1.2106,-1.407l4.988,-0.092l-3.3773,-3.266c-0.6011,-0.581 -0.62,-1.556 -0.0357,-2.161c0.5842,-0.604 1.557,-0.619 2.1602,-0.035zM18.3192,0c0.7738,-0.011 1.4054,0.594 1.4191,1.372l0.08,4.827l3.4005,-3.501c0.5337,-0.548 1.4486,-0.47 2.0255,0.088c0.5779,0.558 0.619,1.557 0.0368,2.16l-5.8323,6.03c-0.5811,0.6 -1.5602,0.616 -2.1602,0.035c-0.298,-0.289 -0.4538,-0.672 -0.4633,-1.058c-0.0884,-2.841 -0.0958,-5.687 -0.1421,-8.53c-0.0126,-0.767 0.6043,-1.406 1.3718,-1.419zM26.7908,6.175c0.5306,-0.549 1.4243,-0.564 1.9728,-0.032l0.1906,0.183c0.5106,0.496 0.6222,1.35 0.1389,1.851l-3.4625,3.593l4.6985,-0.079c0.8369,-0.015 1.5381,0.662 1.5518,1.502c0.0147,0.839 -0.6622,1.539 -1.5013,1.553l-8.4136,0.14c-1.3444,0.022 -2.0287,-1.625 -1.1065,-2.578zM30.6007,16.683c0.7569,-0.013 1.3833,0.612 1.3949,1.371l0.0042,0.265c0.0116,0.711 -0.5137,1.393 -1.2096,1.407l-4.988,0.092l3.4994,3.4c0.5464,0.53 0.4758,1.443 -0.0863,2.025c-0.5633,0.584 -1.5571,0.621 -2.1603,0.037l-6.0302,-5.832c-0.9675,-0.936 -0.3253,-2.601 1.0233,-2.623zM25.8254,26.79c0.5516,0.534 0.5674,1.422 0.0326,1.973l-0.1842,0.19c-0.5369,0.554 -1.4233,0.565 -1.9729,0.033l-3.4699,-3.356l0.079,4.698c0.0137,0.837 -0.659,1.546 -1.5023,1.552c-0.8433,0.007 -1.5391,-0.65 -1.5528,-1.501l-0.14,-8.418c-0.0221,-1.362 1.6433,-2.006 2.5782,-1.102zM15.3178,30.577c0.0126,0.767 -0.6043,1.406 -1.3717,1.419l-0.2643,0.004c-0.7727,0.011 -1.4065,-0.593 -1.4191,-1.372l-0.0811,-4.827l-3.2656,3.378c-0.5801,0.6 -1.5581,0.616 -2.1603,0.035c-0.6011,-0.581 -0.619,-1.557 -0.0358,-2.16l5.8323,-6.03c0.9359,-0.967 2.6003,-0.324 2.6235,1.023zM11.5616,18.646c-0.0011,0.403 -0.1611,0.773 -0.4201,1.046l-5.9312,6.133c-0.5317,0.549 -1.4255,0.564 -1.974,0.032l-0.1895,-0.183c-0.5105,-0.496 -0.6221,-1.35 -0.1389,-1.851l3.4614,-3.593l-4.4236,0.075c-0.9549,0.016 -1.8097,-0.537 -1.8266,-1.498c-0.0158,-0.961 0.6622,-1.539 1.5023,-1.553l8.3873,-0.14c0.8528,-0.015 1.5529,0.681 1.5529,1.532z" fill="#E1C064"/>
<path d="M17.1149,21.961c0,0.14 0.0042,0.285 0.0063,0.425c0.0674,0.215 0.1874,0.417 0.36,0.585l2.7498,2.659l-0.061,-3.69c-0.0064,-0.415 -0.178,-0.792 -0.4559,-1.06c-0.9822,-0.951 -2.5982,-0.291 -2.5992,1.081zM12.5522,21.024l-0.2748,0.284c-0.1052,0.2 -0.1631,0.428 -0.1589,0.668l0.0631,3.825l2.5667,-2.651c0.2905,-0.302 0.4369,-0.688 0.4274,-1.103c-0.0316,-1.347 -1.6865,-1.989 -2.6235,-1.023zM10.034,17.114l-0.42,0.007c-0.2159,0.067 -0.4169,0.187 -0.5843,0.36l-2.6604,2.749l3.69,-0.06c0.4179,-0.007 0.7948,-0.176 1.0822,-0.478c0.898,-0.942 0.259,-2.6 -1.1075,-2.578zM10.0235,12.118l-3.8247,0.064l2.6519,2.566c0.3011,0.29 0.6864,0.436 1.1022,0.427c1.3623,-0.028 1.9782,-1.699 1.0223,-2.623l-0.2832,-0.275c-0.2137,-0.113 -0.4274,-0.163 -0.6685,-0.159zM11.7689,6.369l0.0611,3.69c0.0074,0.415 0.179,0.792 0.4569,1.061c0.9601,0.935 2.5951,0.289 2.5993,-1.082l-0.0074,-0.424c-0.0663,-0.216 -0.1863,-0.417 -0.36,-0.585zM19.8183,6.199l-2.5655,2.651c-0.2885,0.298 -0.4327,0.687 -0.4285,1.073c0.0189,1.393 1.6918,2.016 2.6245,1.053l0.2748,-0.284c0.1053,-0.2 0.1621,-0.428 0.159,-0.669zM25.6306,11.77l-3.6899,0.06c-0.4148,0.007 -0.7917,0.179 -1.0612,0.457c-0.9348,0.965 -0.2874,2.599 1.0865,2.599c0.14,0 0.2811,-0.005 0.4211,-0.008c0.2147,-0.066 0.4169,-0.186 0.5843,-0.359zM22.0881,16.824c-1.3875,0 -2.0318,1.687 -1.0633,2.624l0.2842,0.275c0.2138,0.113 0.4275,0.162 0.6675,0.159l3.8257,-0.064l-2.6529,-2.566c-0.2948,-0.286 -0.678,-0.428 -1.0612,-0.428z" fill="#D6842A"/>
</g></svg>