<svg width="58" height="58" viewBox="0 0 58 58" fill="none" xmlns="http://www.w3.org/2000/svg">
<rect width="58" height="58" rx="16" fill="#CCE5E2"/>
<path d="M36.9219 19.55C38.6229 19.55 40.0246 20.936 40.0246 22.7V40.025C40.0246 41.8048 38.6229 43.175 36.9219 43.175C36.9219 44.0885 36.1816 44.75 35.2996 44.75C34.5121 44.75 33.7246 44.0885 33.7246 43.175H24.2746C24.2746 44.0885 23.4871 44.75 22.6996 44.75C21.8176 44.75 21.0774 44.0885 21.0774 43.175C19.3764 43.175 17.9746 41.8048 17.9746 40.025V22.7C17.9746 20.936 19.3764 19.55 21.0774 19.55H24.2746V14.825C24.2746 13.9115 24.9991 13.25 25.8496 13.25H32.1496C33.0001 13.25 33.7246 13.9115 33.7246 14.825V19.55H36.9219ZM31.3621 19.55V15.6125H26.6371V19.55H31.3621ZM22.6996 24.275V38.45H25.0621V24.275H22.6996ZM32.9371 24.275V38.45H35.2996V24.275H32.9371ZM27.8184 24.275V38.45H30.1809V24.275H27.8184Z" fill="#007B6F"/>
</svg>
