<svg width="58" height="58" viewBox="0 0 58 58" fill="none" xmlns="http://www.w3.org/2000/svg">
<rect width="58" height="58" rx="16" fill="#CCE5E2"/>
<path d="M32.1094 26.5261C31.8344 26.2428 31.4616 26.0836 31.0729 26.0836C30.6842 26.0836 30.3114 26.2428 30.0365 26.5261L29 27.5929C28.447 28.1434 27.7064 28.448 26.9376 28.4411C26.1689 28.4342 25.4335 28.1164 24.8899 27.5561C24.3463 26.9957 24.0379 26.2377 24.0313 25.4453C24.0246 24.6529 24.3201 23.8895 24.8542 23.3195L33.1077 14.8091C35.0618 14.351 37.1062 14.5395 38.9503 15.3479C40.7944 16.1563 42.3444 17.5434 43.3797 19.312C44.415 21.0805 44.8831 23.1405 44.7173 25.1991C44.5516 27.2576 43.7604 29.2099 42.4563 30.7783L39.366 34.0044L32.1094 26.5261ZM16.0421 17.4414C17.5587 15.8773 19.5429 14.8864 21.6737 14.6292C23.8045 14.372 25.9571 14.8634 27.7832 16.024L22.7798 21.1829C21.6962 22.2976 21.0784 23.805 21.0587 25.383C21.0389 26.961 21.6186 28.4843 22.6739 29.6276C23.7293 30.7709 25.1766 31.4434 26.7065 31.5014C28.2365 31.5594 29.7278 30.9983 30.8618 29.9381L31.0729 29.7311L37.2931 36.1411L31.0729 42.5526C30.5231 43.1192 29.7775 43.4375 29 43.4375C28.2225 43.4375 27.4769 43.1192 26.9271 42.5526L16.0407 31.3313C14.2538 29.4893 13.25 26.9912 13.25 24.3864C13.25 21.7815 14.2553 19.2834 16.0421 17.4414Z" fill="#007B6F"/>
</svg>
