<svg width="58" height="58" viewBox="0 0 58 58" fill="none" xmlns="http://www.w3.org/2000/svg">
<rect width="58" height="58" rx="16" fill="#CCE5E2"/>
<path fill-rule="evenodd" clip-rule="evenodd" d="M41.8864 36.7C42.2661 36.7 42.6303 36.8475 42.8988 37.11C43.1673 37.3726 43.3182 37.7287 43.3182 38.1C43.3182 38.4713 43.1673 38.8274 42.8988 39.09C42.6303 39.3525 42.2661 39.5 41.8864 39.5H14.6818C14.3021 39.5 13.9379 39.3525 13.6694 39.09C13.4009 38.8274 13.25 38.4713 13.25 38.1C13.25 37.7287 13.4009 37.3726 13.6694 37.11C13.9379 36.8475 14.3021 36.7 14.6818 36.7H41.8864ZM29 18.5C33.6162 18.5 37.5079 20.005 40.2655 22.1246C42.9731 24.205 44.75 27.019 44.75 29.7C44.75 30.8788 44.3806 31.884 43.7291 32.696C43.0948 33.4884 42.2486 34.026 41.3867 34.3956C39.6885 35.1208 37.6682 35.3 36.1591 35.3H16.1051C15.7295 35.2998 15.3576 35.2272 15.0107 35.0863C14.6638 34.9454 14.3488 34.7391 14.0836 34.479C13.8184 34.2189 13.6083 33.9102 13.4653 33.5707C13.3222 33.2311 13.2491 32.8673 13.25 32.5V21.3C13.25 19.7586 14.5243 18.5 16.1108 18.5H29ZM21.8409 21.3H16.1136V25.5H21.8409V21.3ZM29 21.3H24.7046V25.5H30.4318V21.356C30.1164 21.3311 29.8003 21.3148 29.484 21.307L29 21.3ZM33.2955 21.8362V25.5H39.8117C39.4049 25.0757 38.965 24.6829 38.4958 24.3254C37.1184 23.267 35.3601 22.3724 33.2955 21.8362Z" fill="#007B6F"/>
</svg>
