<svg width="58" height="58" viewBox="0 0 58 58" fill="none" xmlns="http://www.w3.org/2000/svg">
<rect width="58" height="58" rx="16" fill="#CCE5E2"/>
<path fill-rule="evenodd" clip-rule="evenodd" d="M30.6406 15.875C31.0425 15.8751 31.4303 16.0226 31.7306 16.2896C32.0309 16.5566 32.2227 16.9246 32.2698 17.3237L32.2812 17.5156C32.2817 17.9338 32.4418 18.336 32.7289 18.6401C33.016 18.9441 33.4083 19.1271 33.8257 19.1516C34.2432 19.1761 34.6542 19.0403 34.9749 18.7719C35.2955 18.5035 35.5016 18.1228 35.551 17.7076L35.5625 17.5156C35.5625 17.0805 35.7353 16.6632 36.043 16.3555C36.3507 16.0479 36.768 15.875 37.2031 15.875H40.4844C41.7897 15.875 43.0416 16.3936 43.9647 17.3166C44.8877 18.2396 45.4062 19.4915 45.4062 20.7969V37.2031C45.4062 38.5085 44.8877 39.7604 43.9647 40.6834C43.0416 41.6064 41.7897 42.125 40.4844 42.125H37.2031C36.8013 42.1249 36.4134 41.9774 36.1131 41.7104C35.8128 41.4434 35.621 41.0754 35.574 40.6763L35.5625 40.4844C35.562 40.0662 35.4019 39.664 35.1149 39.3599C34.8278 39.0559 34.4355 38.8729 34.018 38.8484C33.6006 38.8239 33.1895 38.9597 32.8689 39.2281C32.5482 39.4965 32.3421 39.8772 32.2927 40.2924L32.2812 40.4844C32.2812 40.9195 32.1084 41.3368 31.8007 41.6445C31.493 41.9522 31.0757 42.125 30.6406 42.125H17.5156C16.2103 42.125 14.9584 41.6064 14.0353 40.6834C13.1123 39.7604 12.5938 38.5085 12.5938 37.2031V20.7969C12.5938 19.4915 13.1123 18.2396 14.0353 17.3166C14.9584 16.3936 16.2103 15.875 17.5156 15.875H30.6406ZM33.9219 30.6406C33.4868 30.6406 33.0695 30.8135 32.7618 31.1212C32.4541 31.4288 32.2812 31.8461 32.2812 32.2812V33.9219C32.2812 34.357 32.4541 34.7743 32.7618 35.082C33.0695 35.3896 33.4868 35.5625 33.9219 35.5625C34.357 35.5625 34.7743 35.3896 35.082 35.082C35.3896 34.7743 35.5625 34.357 35.5625 33.9219V32.2812C35.5625 31.8461 35.3896 31.4288 35.082 31.1212C34.7743 30.8135 34.357 30.6406 33.9219 30.6406ZM33.9219 22.4375C33.52 22.4376 33.1322 22.5851 32.8319 22.8521C32.5316 23.1191 32.3398 23.4871 32.2927 23.8862L32.2812 24.0781V25.7188C32.2817 26.1369 32.4418 26.5391 32.7289 26.8432C33.016 27.1472 33.4083 27.3302 33.8257 27.3547C34.2432 27.3792 34.6542 27.2434 34.9749 26.975C35.2955 26.7066 35.5016 26.3259 35.551 25.9107L35.5625 25.7188V24.0781C35.5625 23.643 35.3896 23.2257 35.082 22.918C34.7743 22.6104 34.357 22.4375 33.9219 22.4375Z" fill="#007B6F"/>
</svg>
