<svg width="58" height="58" viewBox="0 0 58 58" fill="none" xmlns="http://www.w3.org/2000/svg">
<rect width="58" height="58" rx="16" fill="#CCE5E2"/>
<path d="M29.0008 29C31.0295 29 32.9751 28.1703 34.4096 26.6935C35.8441 25.2166 36.65 23.2136 36.65 21.125C36.65 19.0364 35.8441 17.0334 34.4096 15.5565C32.9751 14.0797 31.0295 13.25 29.0008 13.25C26.9722 13.25 25.0266 14.0797 23.5921 15.5565C22.1576 17.0334 21.3517 19.0364 21.3517 21.125C21.3517 23.2136 22.1576 25.2166 23.5921 26.6935C25.0266 28.1703 26.9722 29 29.0008 29ZM41.0737 44.75C42.6494 44.75 43.8605 43.2774 43.297 41.7601C42.1917 38.7783 40.2328 36.2124 37.6797 34.4022C35.1265 32.5919 32.0996 31.6226 28.9996 31.6226C25.8995 31.6226 22.8726 32.5919 20.3194 34.4022C17.7663 36.2124 15.8074 38.7783 14.7021 41.7601C14.1411 43.2774 15.3497 44.75 16.9254 44.75H41.0737Z" fill="#007B6F"/>
</svg>
