<svg width="58" height="58" viewBox="0 0 58 58" fill="none" xmlns="http://www.w3.org/2000/svg">
<rect width="58" height="58" rx="16" fill="#CCE5E2"/>
<path d="M36.1591 17.1875C41.0273 17.1875 44.75 22.5623 44.75 29.0003V36.3833C44.75 36.7749 44.5991 37.1505 44.3306 37.4274C44.0621 37.7043 43.6979 37.8599 43.3182 37.8599H41.6415C41.3451 38.7234 40.7965 39.4711 40.0711 39.9998C39.3457 40.5286 38.4792 40.8125 37.5909 40.8125C36.7026 40.8125 35.8361 40.5286 35.1107 39.9998C34.3854 39.4711 33.8367 38.7234 33.5403 37.8599H24.4597C24.1633 38.7234 23.6146 39.4711 22.8893 39.9998C22.1639 40.5286 21.2974 40.8125 20.4091 40.8125C19.5208 40.8125 18.6543 40.5286 17.9289 39.9998C17.2035 39.4711 16.6549 38.7234 16.3585 37.8599H14.6818C14.3021 37.8599 13.9379 37.7043 13.6694 37.4274C13.4009 37.1505 13.25 36.7749 13.25 36.3833V20.1407C13.25 19.3575 13.5517 18.6063 14.0887 18.0525C14.6258 17.4986 15.3542 17.1875 16.1136 17.1875H36.1591ZM20.4091 34.9067C20.0293 34.9067 19.6652 35.0622 19.3966 35.3392C19.1281 35.6161 18.9773 35.9917 18.9773 36.3833C18.9773 36.7749 19.1281 37.1505 19.3966 37.4274C19.6652 37.7043 20.0293 37.8599 20.4091 37.8599C20.7888 37.8599 21.153 37.7043 21.4215 37.4274C21.6901 37.1505 21.8409 36.7749 21.8409 36.3833C21.8409 35.9917 21.6901 35.6161 21.4215 35.3392C21.153 35.0622 20.7888 34.9067 20.4091 34.9067ZM37.5909 34.9067C37.2112 34.9067 36.847 35.0622 36.5785 35.3392C36.3099 35.6161 36.1591 35.9917 36.1591 36.3833C36.1591 36.7749 36.3099 37.1505 36.5785 37.4274C36.847 37.7043 37.2112 37.8599 37.5909 37.8599C37.9706 37.8599 38.3348 37.7043 38.6034 37.4274C38.8719 37.1505 39.0227 36.7749 39.0227 36.3833C39.0227 35.9917 38.8719 35.6161 38.6034 35.3392C38.3348 35.0622 37.9706 34.9067 37.5909 34.9067ZM36.5027 20.1569L38.0319 27.5237H41.8062C41.358 23.4542 39.0929 20.4065 36.5027 20.1569ZM20.4091 20.1407H16.1136V24.5705H20.4091V20.1407ZM27.5682 20.1407H23.2727V24.5705H27.5682V20.1407ZM33.5689 20.1407H30.4318V24.5705H34.4896L33.5689 20.1407Z" fill="#007B6F"/>
</svg>
