<svg width="58" height="58" viewBox="0 0 58 58" fill="none" xmlns="http://www.w3.org/2000/svg">
<rect width="58" height="58" rx="16" fill="#CCE5E2"/>
<path d="M17.5156 17.5591C17.5158 17.2505 17.4243 16.9484 17.2523 16.6892C17.0802 16.4301 16.8349 16.2251 16.546 16.0988C16.7823 15.9181 17.0677 15.7949 17.3827 15.7502L35.0982 13.2822C35.5636 13.2173 36.0379 13.2507 36.4889 13.3802C36.94 13.5096 37.3572 13.732 37.7124 14.0323C38.0675 14.3326 38.3524 14.7038 38.5476 15.1208C38.7428 15.5378 38.8438 15.9908 38.8438 16.4491V17.7607C38.3078 17.6263 37.7565 17.5586 37.2031 17.5591H17.5156ZM25.3086 30.3548C25.3086 29.4004 25.6975 28.485 26.3898 27.8101C27.0821 27.1352 28.021 26.7561 29 26.7561C29.979 26.7561 30.9179 27.1352 31.6102 27.8101C32.3025 28.485 32.6914 29.4004 32.6914 30.3548C32.6914 31.3093 32.3025 32.2247 31.6102 32.8996C30.9179 33.5745 29.979 33.9536 29 33.9536C28.021 33.9536 27.0821 33.5745 26.3898 32.8996C25.6975 32.2247 25.3086 31.3093 25.3086 30.3548Z" fill="#007B6F"/>
<path fill-rule="evenodd" clip-rule="evenodd" d="M38.8438 19.4305C40.7551 20.0911 42.125 21.8681 42.125 23.957V39.9516C42.125 41.2242 41.6064 42.4447 40.6834 43.3446C39.7604 44.2445 38.5085 44.75 37.2031 44.75H20.7969C19.4915 44.75 18.2396 44.2445 17.3166 43.3446C16.3936 42.4447 15.875 41.2242 15.875 39.9516V17.5591C15.875 17.9834 16.0479 18.3902 16.3555 18.6901C16.6632 18.9901 17.0805 19.1586 17.5156 19.1586H37.2031C37.7773 19.1586 38.3302 19.2546 38.8438 19.4305ZM29 24.3569C27.3683 24.3569 25.8034 24.9888 24.6496 26.1136C23.4958 27.2385 22.8477 28.7641 22.8477 30.3548C22.8477 31.9456 23.4958 33.4712 24.6496 34.5961C25.8034 35.7209 27.3683 36.3528 29 36.3528C30.6317 36.3528 32.1966 35.7209 33.3504 34.5961C34.5042 33.4712 35.1523 31.9456 35.1523 30.3548C35.1523 28.7641 34.5042 27.2385 33.3504 26.1136C32.1966 24.9888 30.6317 24.3569 29 24.3569ZM25.7188 38.752C25.3924 38.752 25.0794 38.8784 24.8487 39.1034C24.6179 39.3283 24.4883 39.6335 24.4883 39.9516C24.4883 40.2698 24.6179 40.5749 24.8487 40.7999C25.0794 41.0248 25.3924 41.1512 25.7188 41.1512H32.2812C32.6076 41.1512 32.9206 41.0248 33.1513 40.7999C33.3821 40.5749 33.5117 40.2698 33.5117 39.9516C33.5117 39.6335 33.3821 39.3283 33.1513 39.1034C32.9206 38.8784 32.6076 38.752 32.2812 38.752H25.7188Z" fill="#007B6F"/>
</svg>
